<svg xmlns="http://www.w3.org/2000/svg" viewBox="0 0 256 256"><defs><linearGradient id="b" x2="1" y2="1"><stop stop-color="#2fb6ff"/><stop offset="1" stop-color="#16265b"/></linearGradient><linearGradient id="v" x2="1"><stop stop-color="#67e8ff"/><stop offset="1" stop-color="#845cff"/></linearGradient></defs><rect width="256" height="256" rx="128" fill="url(#b)"/><path d="M59 112c0-56 27-83 69-83s69 27 69 83v77H59Z" fill="#12172a" stroke="#9bdcff" stroke-width="4"/><circle cx="128" cy="119" r="55" fill="#7c4b3d"/><path d="M68 106c14-47 33-68 60-68 30 0 51 22 62 68-18-18-39-28-62-28s-43 10-60 28Z" fill="#171526"/><rect x="77" y="102" width="102" height="36" rx="18" fill="url(#v)" opacity=".94"/><path d="M54 256c9-61 38-86 74-86s65 25 74 86" fill="#171d36"/><path d="M110 151c12 7 24 7 36 0" fill="none" stroke="#4f2529" stroke-width="5" stroke-linecap="round"/></svg>
